<svg xmlns="http://www.w3.org/2000/svg" viewBox="0 0 213.34 256" data-inject-url="https://sandbox.elemisthemes.com/assets/img/icons/solid/shield.svg" class="svg-inject icon-svg icon-svg-md solid-mono text-grape mb-5"><path class="svg-stroke" d="M106.67 22.22L192 53.81v76.06c0 71.62-68.77 98.71-85.33 104.19-16.75-5.55-85.34-32.65-85.34-104.19V53.81zm0-22.22a7.81 7.81 0 00-2.78.5L5.22 37A8 8 0 000 44.53v85.34C0 227 103.57 255.47 104.62 255.74a8 8 0 002 .26 8.36 8.36 0 002-.27c1.06-.27 104.62-28.79 104.62-125.87V44.51a8 8 0 00-5.21-7.5L109.46.48a8.31 8.31 0 00-2.79-.48z"/></svg>