<svg xmlns="http://www.w3.org/2000/svg" xmlns:xlink="http://www.w3.org/1999/xlink" viewBox="0 0 429.91 93.661" width="1666.66" height="363"><style>.companyName{fill:#3e4ab8!important}.icon1{fill:#0a0a0a!important;fill-opacity:1}</style><svg width="88.992" height="45.611" y="24.025" preserveAspectRatio="none" viewBox="20 59 160 82"><path d="M96.5 141H68.7l-16.4-29 13.9-24.6L96.5 141z" class="icon1"/><path d="M48.7 141H20l46.9-82h28.7l-46.9 82z" fill="#3e4ab8"/><path d="M97.6 141H68.9l46.9-82h28.7l-46.9 82z" fill="#a0a0a0"/><path d="M180 141h-28.8l-16.9-29 14.4-24.6L180 141z" class="icon1"/></svg><svg width="312.536" height="49.295" x="117.375" y="22.183" preserveAspectRatio="none" viewBox="-0.36 -28 180.56 28.48" class="companyName"><path d="M24.24 0l-2.48-6h-13L6.28 0H-.36l12.48-28h6.4L31.04 0h-6.8zm-13.4-10.92h8.88l-4.44-10.72-4.44 10.72zM53.12 0l-8.96-11-3.76 3.92V0h-6.44v-28h6.44v13.08L52.8-28H60L48.4-15.52 60.68 0h-7.56zm31-14.56q2.4.76 3.76 2.54 1.36 1.78 1.36 4.38 0 3.68-2.86 5.66T78.04 0H63.56v-28h13.68q5.12 0 7.86 1.96t2.74 5.32q0 2.04-.98 3.64t-2.74 2.52zm-7.68-8.56H70v6.6h6.44q2.4 0 3.64-.84 1.24-.84 1.24-2.48 0-1.64-1.24-2.46-1.24-.82-3.64-.82zm1.12 18.24q2.56 0 3.86-.84 1.3-.84 1.3-2.6 0-3.48-5.16-3.48H70v6.92h7.56zM106.6.48q-6 0-9.34-3.32t-3.34-9.48V-28h6.48v15.44q0 7.52 6.24 7.52 3.04 0 4.64-1.82 1.6-1.82 1.6-5.7V-28h6.4v15.68q0 6.16-3.34 9.48Q112.6.48 106.6.48zM150.48 0h-6.96l-5.4-7.8h-5.96V0h-6.48v-28h12.12q3.72 0 6.46 1.24 2.74 1.24 4.22 3.52 1.48 2.28 1.48 5.4 0 3.12-1.5 5.38T144.2-9l6.28 9zm-7.08-17.84q0-2.36-1.52-3.62-1.52-1.26-4.44-1.26h-5.28v9.76h5.28q2.92 0 4.44-1.28 1.52-1.28 1.52-3.6zM167.52.48q-6 0-9.34-3.32t-3.34-9.48V-28h6.48v15.44q0 7.52 6.24 7.52 3.04 0 4.64-1.82 1.6-1.82 1.6-5.7V-28h6.4v15.68q0 6.16-3.34 9.48-3.34 3.32-9.34 3.32z"/></svg><svg width="3.286" height="93.661" x="100.943" preserveAspectRatio="none" viewBox="0 0 3.286 93.661"><rect width="3.286" height="93.661" class="companyName" rx="0" ry="0" stroke-width="0" stroke="#3e4ab8"/></svg></svg>