<svg xmlns="http://www.w3.org/2000/svg" viewBox="0 0 500 549.53"><g data-name="Layer 2"><g data-name="Layer 1"><path d="M250 549.39c-15.51 0-30.05-3.46-40.94-9.75l-168-97C18.5 429.63.14 397.82.14 371.75v-194c0-26.07 18.36-57.88 40.94-70.91l168-97C220 3.6 234.49.14 250 .14s30.05 3.46 40.94 9.75l168 97c22.58 13 40.94 44.84 40.94 70.91v194c0 26.07-18.36 57.88-40.94 70.91l-168 97c-10.89 6.22-25.43 9.68-40.94 9.68z"/><path d="M250 .28c15.49 0 30 3.45 40.87 9.73l168 97c22.54 13 40.87 44.77 40.87 70.79v194c0 26-18.33 57.78-40.87 70.79l-168 97c-10.87 6.28-25.38 9.73-40.87 9.73s-30-3.45-40.87-9.73l-168-97C18.61 429.53.28 397.77.28 371.75v-194c0-26 18.33-57.78 40.87-70.79l168-97C220 3.73 234.51.28 250 .28m0-.28c-14.87 0-29.73 3.26-41 9.77l-168 97c-22.56 13-41 45-41 71v194c0 26 18.45 58 41 71l168 97c11.28 6.51 26.14 9.77 41 9.77s29.73-3.26 41-9.77l168-97c22.56-13 41-45 41-71v-194c0-26-18.45-58-41-71l-168-97C279.73 3.26 264.87 0 250 0z"/></g></g></svg>