<svg version="1.0" xmlns="http://www.w3.org/2000/svg" width="200.000000pt" height="200.000000pt" viewBox="0 0 200.000000 200.000000" preserveAspectRatio="xMidYMid meet">
    <g transform="translate(0.000000,200.000000) scale(0.100000,-0.100000)" fill="#000000" stroke="none">
        <path d="M878 1820 c-79 -83 -120 -153 -47 -79 22 22 37 44 34 50 -4 5 5 13
18 18 13 5 31 21 40 35 17 25 47 36 47 17 0 -5 12 -17 28 -26 25 -16 24 -14
-8 21 -19 21 -35 40 -36 42 -1 1 -35 -34 -76 -78z" />
        <path d="M1080 1764 c0 -13 18 -39 24 -34 2 3 -2 14 -10 24 -8 11 -14 16 -14
10z" />
        <path d="M720 1655 c-58 -59 -67 -86 -10 -30 36 34 50 50 64 73 14 23 1 12
-54 -43z" />
        <path d="M563 1498 c-51 -50 -93 -95 -93 -99 0 -17 18 -9 33 15 9 13 43 50 77
82 52 49 89 94 78 94 -2 0 -45 -41 -95 -92z" />
        <path d="M1012 1470 c-94 -45 -211 -123 -261 -174 -30 -31 -32 -35 -13 -31 12
2 22 1 22 -4 0 -13 -24 -31 -41 -31 -27 0 -31 -16 -14 -49 22 -44 92 -73 120
-51 6 4 26 11 45 15 19 4 40 11 45 15 6 4 48 18 94 31 105 30 91 37 -20 9
-150 -37 -259 -39 -259 -4 0 9 5 12 12 8 6 -4 8 -3 4 4 -23 38 234 217 344
238 36 8 38 1 6 -33 -23 -25 -24 -28 -8 -39 23 -18 41 -17 48 1 3 8 21 24 39
35 20 12 32 27 29 34 -4 12 -95 67 -105 65 -2 0 -41 -18 -87 -39z m-137 -108
c-56 -47 -111 -87 -123 -88 -8 -2 -11 1 -7 4 4 4 12 7 18 7 7 0 12 7 12 15 1
8 5 14 11 13 6 -1 26 11 45 28 19 16 38 29 44 29 6 0 6 -3 0 -8z" />
        <path d="M417 1352 c-15 -15 -27 -33 -27 -38 0 -13 443 -464 456 -465 5 0 27
-24 50 -52 22 -29 45 -52 51 -52 13 0 47 32 338 324 121 122 215 221 210 221
-11 0 -234 -217 -408 -397 -65 -68 -123 -123 -128 -123 -6 0 -132 122 -280
271 l-270 271 26 34 c31 41 19 45 -18 6z" />
        <path d="M1129 568 c-3 -111 -8 -150 -20 -164 -10 -13 -10 -17 0 -24 10 -5 12
-19 7 -45 -6 -28 -4 -36 6 -33 7 3 14 21 16 42 l3 37 29 -28 c57 -55 70 -64
70 -49 0 9 7 12 20 9 28 -7 50 14 50 47 0 39 -21 54 -48 34 -22 -15 -22 -15
-22 40 0 30 4 57 8 60 11 6 2 76 -9 76 -5 0 -10 -10 -11 -22 0 -13 -2 -34 -3
-48 -1 -14 -3 -58 -3 -99 l-2 -75 -31 30 c-30 29 -30 29 -10 46 20 16 28 38
14 38 -4 0 -18 -10 -31 -22 l-25 -23 5 79 c3 47 10 81 18 86 9 6 9 12 1 29
-18 33 -31 25 -32 -21z m159 -205 c4 -25 -19 -45 -38 -33 -11 7 -12 13 -2 35
14 30 35 29 40 -2z" />
        <path d="M954 579 c-4 -7 -8 -33 -10 -58 -1 -25 -7 -58 -13 -73 -11 -28 -20
-32 -103 -43 -26 -3 -50 -11 -54 -16 -12 -19 5 -22 40 -5 34 16 96 22 96 9 0
-3 -21 -48 -46 -100 -26 -52 -44 -97 -40 -100 11 -11 23 9 66 115 l42 102 38
0 c35 0 39 -3 46 -32 11 -55 36 -98 56 -98 10 0 18 5 18 10 0 6 -5 10 -10 10
-10 0 -50 81 -50 100 0 5 8 11 18 13 13 4 12 5 -5 6 -19 1 -22 9 -28 59 -4 31
-10 68 -14 82 -8 27 -35 38 -47 19z m36 -78 c0 -10 3 -33 6 -50 6 -29 5 -31
-25 -31 -36 0 -37 1 -13 57 18 45 32 56 32 24z" />
        <path d="M366 539 c-55 -65 -79 -220 -41 -258 39 -38 95 -31 148 18 32 30 46
37 59 30 11 -6 21 -4 32 6 13 14 16 13 26 -5 6 -11 15 -20 21 -20 6 0 6 7 -1
19 -5 11 -10 31 -10 45 0 34 -11 33 -32 -4 -9 -17 -22 -30 -28 -30 -17 0 -11
19 10 32 23 15 26 28 5 28 -8 0 -28 -20 -45 -45 -38 -55 -66 -75 -105 -75 -47
0 -66 20 -72 73 -7 58 12 129 43 162 25 27 32 29 54 15 12 -7 12 -13 4 -27
-12 -19 0 -73 17 -73 13 0 22 45 14 72 -22 72 -58 86 -99 37z" />
        <path d="M1461 403 c-9 -16 -12 -16 -21 -3 -14 21 -12 2 3 -42 19 -54 27 -57
27 -10 0 31 5 45 22 56 l22 16 -21 0 c-12 0 -27 -8 -32 -17z" />
        <path d="M637 397 c-10 -27 -9 -67 3 -67 6 0 16 12 22 28 l11 27 6 -34 c8 -48
28 -51 23 -4 -6 62 -10 68 -31 49 -18 -17 -19 -17 -23 1 -3 17 -4 17 -11 0z" />
        <path d="M1378 378 c-4 -44 -28 -49 -29 -6 l-1 33 -8 -35 c-11 -46 5 -68 31
-44 11 10 19 12 19 7 0 -6 8 -14 18 -18 14 -5 15 -4 5 6 -7 7 -13 30 -13 51 0
46 -17 51 -22 6z" />
        <path d="M1562 393 c2 -33 -2 -53 -12 -53 -5 0 -10 14 -10 31 0 17 -4 28 -10
24 -15 -9 -12 -61 3 -74 10 -8 17 -7 25 1 8 8 15 8 28 -3 15 -12 16 -12 11 6
-3 11 -8 35 -12 53 -7 33 -26 45 -23 15z" />
    </g>
</svg>