<svg xmlns="http://www.w3.org/2000/svg" version="1.0" width="120" height="120" viewBox="0 0 100% 100%" preserveAspectRatio="xMidYMid meet">
        <g fill="#000000" stroke="none" transform="translate(-40.000000,190.000000) scale(0.10000,-0.100000)">
                <path d="M878 1820 c-79 -83 -120 -153 -47 -79 22 22 37 44 34 50 -4 5 5 13 18 18 13 5 31 21 40 35 17 25 47 36 47 17 0 -5 12 -17 28 -26 25 -16 24 -14 -8 21 -19 21 -35 40 -36 42 -1 1 -35 -34 -76 -78z"></path>
                <path d="M1080 1764 c0 -13 18 -39 24 -34 2 3 -2 14 -10 24 -8 11 -14 16 -14 10z"></path>
                <path d="M720 1655 c-58 -59 -67 -86 -10 -30 36 34 50 50 64 73 14 23 1 12 -54 -43z"></path>
                <path d="M563 1498 c-51 -50 -93 -95 -93 -99 0 -17 18 -9 33 15 9 13 43 50 77 82 52 49 89 94 78 94 -2 0 -45 -41 -95 -92z"></path>
                <path d="M1012 1470 c-94 -45 -211 -123 -261 -174 -30 -31 -32 -35 -13 -31 12 2 22 1 22 -4 0 -13 -24 -31 -41 -31 -27 0 -31 -16 -14 -49 22 -44 92 -73 120 -51 6 4 26 11 45 15 19 4 40 11 45 15 6 4 48 18 94 31 105 30 91 37 -20 9 -150 -37 -259 -39 -259 -4 0 9 5 12 12 8 6 -4 8 -3 4 4 -23 38 234 217 344 238 36 8 38 1 6 -33 -23 -25 -24 -28 -8 -39 23 -18 41 -17 48 1 3 8 21 24 39 35 20 12 32 27 29 34 -4 12 -95 67 -105 65 -2 0 -41 -18 -87 -39z m-137 -108 c-56 -47 -111 -87 -123 -88 -8 -2 -11 1 -7 4 4 4 12 7 18 7 7 0 12 7 12 15 1 8 5 14 11 13 6 -1 26 11 45 28 19 16 38 29 44 29 6 0 6 -3 0 -8z"></path>
                <path d="M417 1352 c-15 -15 -27 -33 -27 -38 0 -13 443 -464 456 -465 5 0 27 -24 50 -52 22 -29 45 -52 51 -52 13 0 47 32 338 324 121 122 215 221 210 221 -11 0 -234 -217 -408 -397 -65 -68 -123 -123 -128 -123 -6 0 -132 122 -280 271 l-270 271 26 34 c31 41 19 45 -18 6z"></path>
        </g>
</svg>