<?xml version="1.0" standalone="no"?>
<!DOCTYPE svg PUBLIC "-//W3C//DTD SVG 20010904//EN"
 "http://www.w3.org/TR/2001/REC-SVG-20010904/DTD/svg10.dtd">
<svg version="1.0" xmlns="http://www.w3.org/2000/svg"
 width="700.000000pt" height="700.000000pt" viewBox="0 0 700.000000 700.000000"
 preserveAspectRatio="xMidYMid meet">
<metadata>
Created by potrace 1.14, written by Peter Selinger 2001-2017
</metadata>
<g transform="translate(0.000000,700.000000) scale(0.100000,-0.100000)"
fill="#000000" stroke="none">
<path d="M3172 6473 c-88 -93 -195 -208 -237 -258 -76 -89 -155 -199 -155
-216 0 -24 31 -1 116 84 90 91 134 156 134 196 0 14 18 29 60 52 41 22 84 58
135 115 51 55 87 87 111 94 40 13 40 14 62 -31 16 -31 139 -125 150 -114 2 2
-31 44 -74 92 -44 49 -91 103 -106 121 -15 17 -29 32 -32 32 -2 0 -76 -75
-164 -167z"/>
<path d="M3784 6154 c8 -33 59 -101 72 -96 14 5 5 34 -25 77 -36 50 -56 59
-47 19z"/>
<path d="M2572 5843 c-122 -122 -222 -237 -222 -256 0 -21 34 6 152 121 136
133 248 272 219 272 -6 0 -73 -62 -149 -137z"/>
<path d="M2084 5358 c-114 -112 -258 -258 -321 -326 -107 -116 -134 -162 -97
-162 28 0 51 19 90 72 21 29 135 152 254 273 190 193 300 317 300 338 0 21
-39 -13 -226 -195z"/>
<path d="M3644 5191 c-283 -129 -540 -281 -784 -462 -122 -90 -320 -273 -320
-296 0 -8 17 -10 54 -6 61 6 76 -5 55 -44 -18 -34 -86 -72 -143 -79 -82 -12
-94 -60 -41 -164 53 -105 192 -198 309 -207 53 -5 69 -2 114 21 29 15 101 40
160 55 59 16 139 42 177 59 39 16 162 57 275 91 113 34 223 71 245 82 l40 19
-51 -4 c-28 -3 -149 -27 -270 -55 -333 -77 -452 -94 -639 -95 -209 -1 -265 17
-265 86 0 27 2 29 28 23 27 -5 28 -4 24 23 -6 43 21 87 104 169 285 280 888
630 1139 659 51 6 55 5 55 -14 0 -11 -31 -57 -70 -102 -38 -45 -70 -87 -70
-95 0 -20 69 -74 108 -85 45 -12 75 1 100 43 20 34 71 79 165 144 25 17 53 46
62 63 15 29 15 31 -12 57 -62 58 -307 203 -342 203 -9 -1 -102 -40 -207 -89z
m-564 -406 c0 -14 -313 -253 -391 -298 -51 -30 -105 -38 -79 -13 8 8 30 18 49
23 19 5 37 15 41 23 29 63 38 73 73 85 21 7 82 47 135 87 53 41 106 80 117 86
20 11 55 16 55 7z"/>
<path d="M1524 4792 c-61 -48 -142 -144 -150 -178 -5 -20 5 -37 52 -91 225
-256 1483 -1528 1540 -1556 17 -9 78 -71 135 -139 210 -248 201 -242 287 -177
117 90 1676 1656 1818 1828 23 28 25 32 8 23 -52 -28 -366 -331 -1066 -1032
-416 -417 -766 -761 -778 -765 -16 -5 -36 6 -88 51 -37 32 -468 458 -959 947
l-892 890 65 84 c74 98 86 118 82 140 -2 12 -15 6 -54 -25z"/>
<path d="M3969 2109 c-6 -12 -15 -105 -20 -208 -15 -330 -25 -408 -65 -480
-30 -55 -30 -70 2 -96 23 -18 26 -28 25 -75 0 -30 -5 -80 -10 -110 -10 -64 -6
-80 21 -80 28 0 49 58 62 172 l11 97 132 -123 c139 -130 190 -172 200 -162 3
3 11 16 17 28 10 21 19 23 83 23 62 0 75 3 98 25 42 39 55 73 55 145 0 136
-66 179 -168 110 -46 -32 -60 -32 -68 1 -12 49 2 296 20 338 19 46 21 171 2
231 -14 47 -41 58 -55 23 -12 -33 -31 -301 -32 -471 -1 -78 -4 -189 -8 -247
l-6 -105 -88 84 c-48 46 -90 95 -93 108 -5 20 4 34 50 79 57 56 77 97 57 117
-15 15 -48 -4 -134 -80 -39 -34 -72 -61 -74 -59 -5 5 16 309 27 396 12 92 36
166 56 174 43 16 -20 166 -71 166 -8 0 -19 -10 -26 -21z m517 -780 c29 -32 26
-119 -4 -152 -31 -33 -66 -41 -101 -23 -35 19 -42 36 -32 74 30 103 93 150
137 101z"/>
<path d="M3353 2038 c-22 -24 -37 -87 -48 -208 -23 -252 -62 -341 -163 -370
-20 -6 -98 -20 -172 -31 -213 -32 -270 -54 -270 -100 0 -29 59 -25 138 10 112
49 292 77 332 51 19 -12 13 -29 -119 -308 -99 -208 -148 -320 -166 -380 -8
-27 17 -41 41 -21 26 22 82 140 210 449 l122 295 119 3 c113 2 120 1 140 -20
13 -14 32 -64 48 -123 46 -176 125 -305 186 -305 55 0 81 52 36 69 -45 17
-165 244 -175 328 -5 43 -4 44 37 60 44 17 40 33 -10 33 -42 0 -59 30 -75 127
-7 48 -22 146 -34 216 -23 151 -46 209 -89 231 -41 22 -64 20 -88 -6z m112
-296 c6 -64 19 -156 31 -213 9 -44 -17 -59 -99 -59 -40 0 -78 4 -86 9 -22 14
-8 74 43 192 46 105 79 154 96 144 5 -3 11 -36 15 -73z"/>
<path d="M1385 1972 c-160 -75 -306 -420 -309 -732 -1 -154 17 -213 80 -269
133 -117 307 -89 508 84 121 104 136 111 203 94 53 -12 54 -12 99 19 24 18 51
32 58 32 7 0 29 -24 47 -52 22 -34 42 -54 57 -56 27 -4 28 8 3 74 -11 28 -23
76 -26 105 -12 111 -15 119 -36 119 -14 0 -36 -25 -74 -85 -56 -87 -94 -122
-120 -111 -8 3 -15 15 -15 26 0 21 20 44 94 107 44 37 45 66 4 71 -36 4 -99
-54 -185 -172 -124 -169 -212 -234 -329 -244 -137 -11 -222 39 -259 154 -29
85 -27 297 3 407 33 120 77 203 146 274 53 53 67 63 97 63 36 0 109 -42 109
-63 0 -6 -10 -35 -22 -65 -20 -48 -21 -58 -11 -119 13 -73 38 -116 72 -121 27
-4 47 39 57 126 6 53 3 75 -20 145 -55 168 -135 233 -231 189z"/>
<path d="M5160 1450 c-19 -10 -43 -32 -53 -49 -23 -39 -35 -39 -69 1 l-27 33
-1 -30 c0 -35 69 -242 94 -279 9 -15 21 -24 25 -22 5 3 12 52 16 108 9 127 20
154 81 203 27 22 53 43 59 47 19 17 -91 6 -125 -12z"/>
<path d="M5477 1433 c-4 -3 -7 -40 -7 -82 0 -179 -61 -222 -79 -57 -10 85 -13
91 -36 82 -25 -9 -37 -56 -32 -122 5 -74 29 -127 64 -143 22 -10 31 -8 63 14
41 28 55 27 108 -13 18 -14 34 -23 37 -20 5 5 -51 253 -66 290 -13 31 -43 61
-52 51z"/>
<path d="M2235 1395 c-20 -42 -32 -167 -21 -210 8 -30 36 -33 59 -7 9 10 31
51 49 91 l34 73 18 -93 c19 -101 39 -149 61 -149 24 0 29 47 17 158 -12 102
-26 152 -48 159 -6 2 -33 -14 -60 -37 -27 -22 -52 -40 -56 -40 -4 0 -13 21
-21 48 l-14 47 -18 -40z"/>
<path d="M4841 1403 c-6 -16 -15 -57 -20 -92 -15 -95 -49 -135 -81 -96 -7 9
-16 55 -19 103 l-6 87 -17 -78 c-42 -186 -2 -263 98 -187 48 36 57 37 79 4 13
-21 68 -54 89 -54 3 0 -5 16 -19 35 -27 40 -45 114 -45 183 0 61 -17 122 -34
122 -8 0 -19 -12 -25 -27z"/>
</g>
</svg>
